<?xml version="1.0" encoding="iso-8859-1"?>
<!-- Generator: Adobe Illustrator 19.0.0, SVG Export Plug-In . SVG Version: 6.00 Build 0)  -->
<svg version="1.1" id="Layer_1" xmlns="http://www.w3.org/2000/svg" xmlns:xlink="http://www.w3.org/1999/xlink" x="0px" y="0px"
	 viewBox="0 0 512.001 512.001" style="enable-background:new 0 0 512.001 512.001;" xml:space="preserve">
<g>
	<g>
		<path d="M216.292,357.846H40.557c-4.329,0-7.837,3.508-7.837,7.837c0,4.328,3.508,7.837,7.837,7.837h10.215
			c0.032,0.084,1.828,3.85,4.471,9.391c-16.408,10.596-27.305,29.087-27.305,50.097c0,32.826,26.581,59.531,59.256,59.531
			c32.674,0,59.256-26.706,59.256-59.531c0-21.011-10.899-39.503-27.308-50.098c2.644-5.54,4.439-9.306,4.471-9.39h92.678
			c4.329,0,7.837-3.509,7.837-7.837C224.129,361.354,220.621,357.846,216.292,357.846z M106.302,373.52l-19.109,39.93l-19.109-39.93
			H106.302z M72.763,419.589c2.832,5.926,4.77,9.982,4.77,9.982c2.005,4.187,5.617,6.685,9.661,6.685
			c4.046,0,7.657-2.502,9.661-6.688c0,0,1.937-4.055,4.768-9.98c3.244,3.531,5.237,8.24,5.237,13.42
			c0,10.924-8.822,19.812-19.666,19.812c-10.844,0-19.666-8.888-19.666-19.812C67.528,427.829,69.52,423.119,72.763,419.589z
			 M130.776,433.007c0,24.182-19.551,43.858-43.582,43.858s-43.582-19.675-43.582-43.858c0-14.773,7.3-27.854,18.456-35.804
			c1.21,2.533,2.442,5.113,3.657,7.656c-8.422,6.491-13.871,16.686-13.871,28.148c0,19.568,15.853,35.486,35.34,35.486
			c19.487,0,35.34-15.918,35.34-35.486c0-11.463-5.45-21.658-13.873-28.148c1.215-2.545,2.448-5.124,3.657-7.657
			C123.475,405.152,130.776,418.235,130.776,433.007z"/>
	</g>
</g>
<g>
	<g>
		<path d="M493.715,78.931h-71.699c-3.401,0-6.414,2.194-7.458,5.43l-11.499,35.637h-55.63v-17.6c0-4.329-3.508-7.837-7.837-7.837
			s-7.837,3.508-7.837,7.837v17.601h-73.143V54.899h70.531c1.416,0,2.612,1.196,2.612,2.612v16.676c0,4.329,3.508,7.837,7.837,7.837
			s7.837-3.508,7.837-7.837V57.511c0-10.082-8.204-18.286-18.286-18.286h-70.531v-1.477c0-10.082-8.204-18.286-18.286-18.286
			h-76.278c-10.082,0-18.286,8.204-18.286,18.286v37.004H74.185c-10.082,0-18.286,8.204-18.286,18.286v26.962H16.651
			c-5.658,0-10.646,2.393-13.682,6.564c-3.047,4.187-3.79,9.697-2.039,15.118L51.76,298.952c3.056,9.455,13.208,16.862,23.11,16.862
			h326.815c11.505,0,20.865,9.427,20.865,21.016c0,11.589-9.359,21.016-20.865,21.016H245.549c-4.329,0-7.837,3.508-7.837,7.837
			c0,4.328,3.508,7.837,7.837,7.837h49.165c0.032,0.084,1.828,3.85,4.471,9.391c-16.409,10.596-27.308,29.087-27.308,50.097
			c0,32.826,26.582,59.531,59.257,59.531c32.674,0,59.256-26.706,59.256-59.531c0-21.01-10.898-39.501-27.305-50.097
			c2.644-5.541,4.439-9.308,4.471-9.391h34.129c20.147,0,36.538-16.459,36.538-36.69c0-20.23-16.391-36.69-36.538-36.69h-40.344
			c0.155-0.394,0.316-0.786,0.445-1.188l65.936-204.346h3.552c-0.122,0.855-0.208,1.723-0.208,2.612v7.502
			c0,10.082,8.204,18.286,18.286,18.286h44.364c10.082,0,18.286-8.204,18.286-18.286v-7.502
			C512.001,87.135,503.797,78.931,493.715,78.931z M350.245,373.52l-19.109,39.93l-19.11-39.93H350.245z M316.704,419.589
			c2.832,5.925,4.769,9.98,4.769,9.98c2.004,4.188,5.615,6.688,9.661,6.688c4.044,0,7.656-2.499,9.663-6.688
			c0,0,1.937-4.054,4.768-9.979c3.242,3.531,5.235,8.24,5.235,13.419c0,10.924-8.822,19.812-19.666,19.812
			s-19.666-8.888-19.666-19.812C311.468,427.828,313.461,423.118,316.704,419.589z M374.717,433.007
			c0,24.182-19.551,43.858-43.582,43.858c-24.032,0-43.583-19.675-43.583-43.858c0-14.774,7.301-27.855,18.458-35.805
			c1.209,2.533,2.442,5.113,3.657,7.657c-8.424,6.49-13.872,16.685-13.872,28.148c0,19.568,15.853,35.486,35.34,35.486
			s35.34-15.918,35.34-35.486c0-11.462-5.449-21.657-13.871-28.148c1.215-2.544,2.447-5.123,3.657-7.656
			C367.417,405.153,374.717,418.236,374.717,433.007z M161.435,37.748c0-1.416,1.196-2.612,2.612-2.612h76.278
			c1.416,0,2.612,1.196,2.612,2.612v82.252h-81.503V37.748z M71.573,93.038c0-1.416,1.196-2.612,2.612-2.612h71.576v29.574H71.573
			V93.038z M15.846,136.861c-0.177-0.545-0.185-0.885-0.171-1.047c0.144-0.056,0.449-0.142,0.978-0.142h94.991v41.839h-82.66
			L15.846,136.861z M74.87,300.139c-3.157,0-7.216-2.976-8.196-6.008l-13.975-43.239h58.943v49.247H74.87z M119.48,213.681
			c-4.329,0-7.837,3.508-7.837,7.837v13.701h-64.01L34.05,193.185h77.652c0.458,3.892,3.763,6.912,7.777,6.912
			c4.016,0,7.32-3.021,7.777-6.912h71.68v42.033h-71.619v-13.701C127.317,217.188,123.81,213.681,119.48,213.681z M198.937,300.139
			h-71.62v-49.247h71.62V300.139z M198.937,177.512h-71.62v-41.839h71.62V177.512z M286.229,235.218h-13.513
			c-4.329,0-7.837,3.508-7.837,7.837c0,4.329,3.508,7.837,7.837,7.837h13.513v49.247h-71.618v-49.247h29.893
			c4.329,0,7.837-3.508,7.837-7.837c0-4.329-3.508-7.837-7.837-7.837h-29.893v-42.033h71.618V235.218z M286.229,177.512h-71.618
			v-41.839h71.618V177.512z M347.058,293.553l-0.187,0.578c-0.98,3.032-5.04,6.008-8.196,6.008h-36.773v-49.247h58.922
			L347.058,293.553z M365.881,235.218h-63.979v-42.033h77.542L365.881,235.218z M397.864,136.097l-13.363,41.415h-82.599v-41.839
			h94.99c0.529,0,0.834,0.086,0.978,0.142C397.876,135.878,397.874,135.978,397.864,136.097z M496.327,104.72
			c0,1.416-1.196,2.612-2.612,2.612h-44.364c-1.416,0-2.612-1.196-2.612-2.612v-7.502c0-1.416,1.196-2.612,2.612-2.612h44.364
			c1.416,0,2.612,1.196,2.612,2.612V104.72z"/>
	</g>
</g>
<g>
</g>
<g>
</g>
<g>
</g>
<g>
</g>
<g>
</g>
<g>
</g>
<g>
</g>
<g>
</g>
<g>
</g>
<g>
</g>
<g>
</g>
<g>
</g>
<g>
</g>
<g>
</g>
<g>
</g>
</svg>
